<svg width="680" height="560" viewBox="0 0 680 560" xmlns="http://www.w3.org/2000/svg" font-family="Segoe UI, Arial, sans-serif">

  <!-- Background -->
  <rect width="680" height="560" fill="#f8f9fa" rx="12"/>
  
  <!-- Subtle grid pattern -->
  <defs>
    <pattern id="grid" width="20" height="20" patternUnits="userSpaceOnUse">
      <path d="M 20 0 L 0 0 0 20" fill="none" stroke="#e9ecef" stroke-width="0.5"/>
    </pattern>
    <marker id="arr" viewBox="0 0 10 10" refX="8" refY="5" markerWidth="6" markerHeight="6" orient="auto-start-reverse">
      <path d="M2 1L8 5L2 9" fill="none" stroke="#adb5bd" stroke-width="1.5" stroke-linecap="round" stroke-linejoin="round"/>
    </marker>
    <filter id="shadow" x="-5%" y="-5%" width="110%" height="110%">
      <feDropShadow dx="0" dy="2" stdDeviation="3" flood-color="#00000018"/>
    </filter>
  </defs>
  <rect width="680" height="560" fill="url(#grid)" rx="12"/>

  <!-- Header -->
  <rect x="0" y="0" width="680" height="56" fill="#1a1a2e" rx="12"/>
  <rect x="0" y="44" width="680" height="12" fill="#1a1a2e"/>
  <text x="340" y="24" text-anchor="middle" font-size="15" font-weight="700" fill="#ffffff" letter-spacing="1">VBAF ENTERPRISE ARCHITECTURE</text>
  <text x="340" y="42" text-anchor="middle" font-size="10" fill="#adb5bd" letter-spacing="2">27 PHASES · PURE POWERSHELL 5.1 · ANY WINDOWS ENVIRONMENT</text>

  <!-- Phase 27 AutoPilot - Crown -->
  <rect x="220" y="72" width="240" height="54" rx="8" fill="#ffffff" stroke="#f59f00" stroke-width="2" filter="url(#shadow)"/>
  <rect x="220" y="72" width="6" height="54" rx="4" fill="#f59f00"/>
  <text x="340" y="95" text-anchor="middle" font-size="13" font-weight="700" fill="#e67700">Phase 27 — AutoPilot</text>
  <text x="340" y="113" text-anchor="middle" font-size="10" fill="#868e96">One master agent · Full enterprise autonomy</text>

  <!-- Arrow -->
  <line x1="340" y1="138" x2="340" y2="126" stroke="#adb5bd" stroke-width="1.5" marker-end="url(#arr)"/>

  <!-- Phase 26 -->
  <rect x="180" y="138" width="320" height="44" rx="7" fill="#ffffff" stroke="#4dabf7" stroke-width="1.5" filter="url(#shadow)"/>
  <rect x="180" y="138" width="6" height="44" rx="4" fill="#4dabf7"/>
  <text x="344" y="156" text-anchor="middle" font-size="11" font-weight="700" fill="#1971c2">Phase 26</text>
  <text x="344" y="172" text-anchor="middle" font-size="10" fill="#868e96">Multi-site coordination</text>

  <!-- Arrow -->
  <line x1="340" y1="194" x2="340" y2="182" stroke="#adb5bd" stroke-width="1.5" marker-end="url(#arr)"/>

  <!-- Phases 22-25 -->
  <rect x="130" y="194" width="420" height="44" rx="7" fill="#ffffff" stroke="#4dabf7" stroke-width="1.5" filter="url(#shadow)"/>
  <rect x="130" y="194" width="6" height="44" rx="4" fill="#4dabf7"/>
  <text x="344" y="212" text-anchor="middle" font-size="11" font-weight="700" fill="#1971c2">Phases 22–25</text>
  <text x="344" y="228" text-anchor="middle" font-size="10" fill="#868e96">UBA · Patch Intelligence · Backup Optimizer · Energy Optimizer</text>

  <!-- Arrow -->
  <line x1="340" y1="250" x2="340" y2="238" stroke="#adb5bd" stroke-width="1.5" marker-end="url(#arr)"/>

  <!-- Phases 18-21 -->
  <rect x="88" y="250" width="504" height="44" rx="7" fill="#ffffff" stroke="#4dabf7" stroke-width="1.5" filter="url(#shadow)"/>
  <rect x="88" y="250" width="6" height="44" rx="4" fill="#4dabf7"/>
  <text x="344" y="268" text-anchor="middle" font-size="11" font-weight="700" fill="#1971c2">Phases 18–21</text>
  <text x="344" y="284" text-anchor="middle" font-size="10" fill="#868e96">Anomaly Detector · Capacity Planner · Incident Responder · Compliance Reporter</text>

  <!-- Arrow -->
  <line x1="340" y1="306" x2="340" y2="294" stroke="#adb5bd" stroke-width="1.5" marker-end="url(#arr)"/>

  <!-- Phases 14-17 -->
  <rect x="56" y="306" width="568" height="44" rx="7" fill="#ffffff" stroke="#4dabf7" stroke-width="1.5" filter="url(#shadow)"/>
  <rect x="56" y="306" width="6" height="44" rx="4" fill="#4dabf7"/>
  <text x="344" y="324" text-anchor="middle" font-size="11" font-weight="700" fill="#1971c2">Phases 14–17</text>
  <text x="344" y="340" text-anchor="middle" font-size="10" fill="#868e96">Self-Healing · Dashboard · Federated Learning · Cloud Bridge</text>

  <!-- Arrow -->
  <line x1="340" y1="362" x2="340" y2="350" stroke="#adb5bd" stroke-width="1.5" marker-end="url(#arr)"/>

  <!-- Phases 10-13 -->
  <rect x="28" y="362" width="624" height="44" rx="7" fill="#ffffff" stroke="#4dabf7" stroke-width="1.5" filter="url(#shadow)"/>
  <rect x="28" y="362" width="6" height="44" rx="4" fill="#4dabf7"/>
  <text x="344" y="380" text-anchor="middle" font-size="11" font-weight="700" fill="#1971c2">Phases 10–13</text>
  <text x="344" y="396" text-anchor="middle" font-size="10" fill="#868e96">Security · Network · DataFlow · Multi-Agent Coordinator · Predictive · NL Interface</text>

  <!-- Arrow -->
  <line x1="340" y1="418" x2="340" y2="406" stroke="#adb5bd" stroke-width="1.5" marker-end="url(#arr)"/>

  <!-- Phase 9 Foundation -->
  <rect x="18" y="418" width="644" height="56" rx="8" fill="#ffffff" stroke="#2f9e44" stroke-width="2" filter="url(#shadow)"/>
  <rect x="18" y="418" width="8" height="56" rx="4" fill="#2f9e44"/>
  <text x="344" y="441" text-anchor="middle" font-size="13" font-weight="700" fill="#2f9e44">Phase 9 — Foundation</text>
  <text x="344" y="459" text-anchor="middle" font-size="10" fill="#868e96">JobScheduler · ResourceOptimizer · AlertRouter · SupplyChain · Environment</text>

  <!-- Legend -->
  <rect x="18" y="488" width="200" height="28" rx="6" fill="#ffffff" stroke="#e9ecef" stroke-width="1"/>
  <rect x="26" y="496" width="10" height="10" rx="2" fill="#2f9e44"/>
  <text x="42" y="506" font-size="9" fill="#868e96">Foundation Layer</text>
  <rect x="90" y="496" width="10" height="10" rx="2" fill="#4dabf7"/>
  <text x="106" y="506" font-size="9" fill="#868e96">Enterprise Pillars</text>
  <rect x="160" y="496" width="10" height="10" rx="2" fill="#f59f00"/>
  <text x="176" y="506" font-size="9" fill="#868e96">AutoPilot</text>

  <!-- Footer -->
  <text x="462" y="510" text-anchor="middle" font-size="9" fill="#adb5bd">github.com/JupyterPS/VBAF · Install-Module VBAF · Built in Denmark 🇩🇰</text>

</svg>